<?xml version="1.0" standalone="no"?>
<!DOCTYPE svg PUBLIC "-//W3C//DTD SVG 20010904//EN"
 "http://www.w3.org/TR/2001/REC-SVG-20010904/DTD/svg10.dtd">
<svg version="1.0" xmlns="http://www.w3.org/2000/svg"
 width="320.000000pt" height="320.000000pt" viewBox="0 0 320.000000 320.000000"
 preserveAspectRatio="xMidYMid meet">
<metadata>
Created by potrace 1.11, written by Peter Selinger 2001-2013
</metadata>
<g transform="translate(0.000000,320.000000) scale(0.100000,-0.100000)"
fill="#000000" stroke="none">
<path d="M1440 3139 c-366 -35 -694 -191 -961 -458 -134 -134 -217 -248 -294
-401 -247 -494 -209 -1080 103 -1545 316 -472 876 -738 1445 -687 223 20 398
71 597 173 412 212 712 605 812 1062 19 87 22 132 22 312 0 179 -3 224 -21
307 -178 793 -895 1315 -1703 1237z m275 -48 c27 -6 28 -8 9 -14 -11 -4 -31
-18 -44 -32 l-23 -24 -27 29 c-27 29 -76 41 -94 23 -4 -4 -24 -6 -46 -4 -34 2
-41 -1 -63 -33 l-24 -36 -23 25 c-24 26 -77 34 -96 15 -5 -5 -26 -7 -47 -3
-21 3 -36 7 -35 9 7 6 175 37 242 44 90 9 232 10 271 1z m141 -16 c105 -18
230 -55 332 -97 73 -30 91 -48 49 -48 -12 0 -32 -7 -44 -15 -20 -14 -22 -13
-33 20 -12 36 -60 71 -84 62 -6 -3 -20 1 -31 9 -26 19 -52 17 -86 -6 l-28 -21
-16 30 c-19 38 -49 55 -81 47 -17 -5 -33 0 -51 14 -14 11 -23 20 -21 20 3 0
45 -7 94 -15z m-110 -61 c-4 -18 -10 -34 -15 -34 -8 0 -4 53 6 80 9 26 16 -7
9 -46z m-169 9 c-3 -10 -5 -4 -5 12 0 17 2 24 5 18 2 -7 2 -21 0 -30z m-100
-20 c-3 -10 -5 -2 -5 17 0 19 2 27 5 18 2 -10 2 -26 0 -35z m120 0 c-3 -10 -5
-2 -5 17 0 19 2 27 5 18 2 -10 2 -26 0 -35z m113 7 c-5 -22 -8 -27 -9 -13 -1
21 9 56 14 51 2 -2 0 -19 -5 -38z m-545 -5 c-13 -20 -25 -41 -27 -47 -3 -8
-10 -8 -25 1 -31 16 -88 14 -103 -4 -7 -8 -20 -15 -29 -15 -29 0 -60 -30 -67
-65 -5 -31 -8 -33 -31 -24 -41 15 -70 10 -91 -16 -12 -15 -30 -25 -46 -25 -39
0 -66 -33 -66 -80 l0 -40 -43 0 c-45 0 -87 -22 -87 -45 0 -7 -8 -16 -18 -20
-26 -8 -43 -49 -36 -85 6 -29 5 -30 -28 -30 -39 0 -78 -30 -78 -60 0 -11 -6
-20 -13 -20 -7 0 -24 -10 -36 -21 -19 -18 -22 -29 -18 -58 3 -20 8 -44 12 -53
5 -14 2 -18 -13 -18 -29 0 -82 -48 -82 -73 0 -12 -7 -31 -15 -41 -20 -26 -19
-56 1 -85 14 -19 14 -25 3 -32 -8 -5 -19 -9 -26 -9 -19 0 -43 -41 -43 -73 0
-15 -9 -38 -21 -50 -26 -28 -19 -70 18 -109 15 -15 22 -28 16 -28 -5 0 -22
-11 -36 -24 -23 -21 -25 -31 -25 -100 -1 -73 1 -77 28 -98 l29 -21 -29 -34
c-33 -37 -38 -64 -15 -83 11 -9 12 -17 4 -32 -20 -38 -7 -81 34 -107 35 -23
36 -25 22 -47 -19 -30 -19 -88 0 -104 8 -7 15 -23 15 -36 0 -29 33 -64 60 -64
23 0 24 -1 8 -52 -10 -34 -9 -42 9 -66 11 -15 23 -44 27 -65 6 -31 14 -41 41
-53 19 -8 44 -14 55 -14 18 0 20 -4 15 -33 -8 -41 9 -87 35 -94 11 -3 20 -10
20 -16 0 -25 34 -47 75 -47 41 0 41 0 37 -34 -4 -35 -3 -37 59 -93 5 -4 19
-21 31 -37 20 -27 25 -28 75 -23 51 5 53 5 53 -19 0 -28 53 -88 72 -82 6 2 20
-4 31 -15 19 -19 59 -20 99 -3 13 6 19 2 23 -17 9 -35 50 -71 74 -64 13 3 28
-4 42 -19 28 -30 61 -30 107 -2 28 17 37 19 40 8 11 -31 52 -61 84 -60 18 0
48 -2 66 -6 28 -5 38 -2 61 20 l28 27 31 -30 c31 -32 51 -37 80 -22 11 5 31 2
57 -10 l40 -19 -170 4 c-255 7 -418 47 -640 155 -156 77 -276 162 -400 286
-263 264 -409 589 -440 980 -20 245 61 585 195 819 142 249 393 485 645 606
73 36 237 99 257 100 4 0 -3 -16 -17 -35z m602 3 c-3 -7 -5 -2 -5 12 0 14 2
19 5 13 2 -7 2 -19 0 -25z m90 10 c-3 -8 -6 -5 -6 6 -1 11 2 17 5 13 3 -3 4
-12 1 -19z m-400 -40 c-2 -13 -4 -5 -4 17 -1 22 1 32 4 23 2 -10 2 -28 0 -40z
m-237 -2 c4 -20 4 -38 0 -41 -4 -3 -10 9 -14 26 -13 68 -1 81 14 15z m127 12
c-3 -7 -5 -2 -5 12 0 14 2 19 5 13 2 -7 2 -19 0 -25z m270 -5 c-3 -10 -5 -4
-5 12 0 17 2 24 5 18 2 -7 2 -21 0 -30z m-380 5 c-3 -8 -6 -5 -6 6 -1 11 2 17
5 13 3 -3 4 -12 1 -19z m130 -15 c-3 -10 -5 -4 -5 12 0 17 2 24 5 18 2 -7 2
-21 0 -30z m196 6 c22 -26 32 -30 55 -25 33 9 48 9 87 1 23 -5 39 0 69 20 31
21 41 24 47 13 5 -7 9 -16 9 -19 0 -3 9 -15 21 -28 16 -17 28 -21 49 -16 16 3
31 2 35 -4 10 -18 61 -12 88 9 l26 21 12 -42 c13 -42 47 -66 78 -54 9 4 22 -3
32 -16 18 -24 61 -30 110 -17 25 7 27 5 34 -30 9 -47 21 -62 51 -62 13 0 24
-4 24 -9 0 -27 34 -43 76 -36 l43 6 3 -48 c3 -45 5 -49 36 -58 17 -5 32 -15
32 -23 0 -28 48 -62 89 -62 l40 0 -6 -55 c-5 -51 -4 -55 20 -66 15 -7 24 -15
22 -19 -3 -4 5 -19 16 -34 15 -19 30 -26 56 -26 30 0 34 -3 28 -17 -4 -10 -13
-33 -20 -52 l-13 -35 -25 50 c-77 150 -257 346 -415 452 -241 161 -486 235
-777 235 -233 -1 -435 -50 -636 -154 -224 -118 -433 -320 -549 -532 l-27 -47
1 35 c1 25 6 37 19 41 25 8 40 52 32 93 -8 40 4 51 53 51 25 0 35 6 41 23 5
12 7 25 4 30 -2 4 2 7 10 7 28 0 49 37 45 79 l-3 40 50 -2 c47 -2 51 0 65 30
10 20 25 33 41 37 27 5 59 56 59 93 0 18 4 19 51 9 48 -10 53 -9 67 12 8 12
23 22 33 22 27 0 59 36 59 65 0 28 17 32 46 10 27 -20 61 -18 81 5 11 13 30
20 51 20 33 0 67 24 89 65 11 18 13 18 48 -9 33 -26 39 -27 63 -16 15 7 41 12
59 11 25 -2 36 4 54 28 13 17 25 31 29 31 3 0 18 -14 33 -31z m-369 -34 c5
-22 4 -26 -4 -15 -5 8 -10 24 -10 34 0 26 6 18 14 -19z m777 -2 c-12 -20 -14
-14 -5 12 4 9 9 14 11 11 3 -2 0 -13 -6 -23z m-912 -23 c0 -10 -3 -8 -9 5 -12
27 -12 43 0 25 5 -8 9 -22 9 -30z m1426 -109 c103 -73 274 -243 350 -351 55
-76 175 -299 175 -323 0 -6 -8 -3 -18 6 -10 9 -32 22 -50 28 -28 9 -30 13 -21
35 14 38 11 80 -7 94 -8 8 -21 28 -29 46 -11 27 -22 35 -59 45 -43 11 -44 12
-35 38 12 35 -4 81 -31 88 -13 3 -20 14 -20 28 0 42 -31 67 -83 67 -46 1 -47
2 -47 33 0 32 -32 85 -52 85 -6 0 -22 12 -35 26 -21 23 -30 26 -69 21 -38 -4
-44 -2 -44 14 0 35 -23 70 -51 76 -15 3 -37 19 -50 36 l-22 31 59 -33 c32 -18
95 -59 139 -90z m-625 84 c281 -62 490 -174 686 -369 209 -208 333 -446 380
-734 19 -116 14 -348 -10 -457 -56 -253 -166 -460 -339 -641 -255 -267 -563
-406 -927 -420 -241 -10 -430 30 -645 135 -379 185 -639 520 -726 934 -28 132
-30 351 -5 480 113 584 578 1015 1176 1091 73 9 337 -3 410 -19z m408 8 c-24
-49 -33 -63 -40 -63 -6 0 -8 3 -6 8 24 48 33 62 40 62 6 0 8 -3 6 -7z m-50
-28 c-6 -14 -13 -23 -15 -21 -5 5 15 46 22 46 3 0 -1 -11 -7 -25z m62 -5 c-6
-11 -13 -20 -16 -20 -2 0 0 9 6 20 6 11 13 20 16 20 2 0 0 -9 -6 -20z m78 -40
c-7 -10 -14 -17 -17 -15 -4 4 18 35 25 35 2 0 -1 -9 -8 -20z m-1528 -10 c6
-11 8 -20 6 -20 -3 0 -10 9 -16 20 -6 11 -8 20 -6 20 3 0 10 -9 16 -20z m54
-16 c3 -8 2 -12 -4 -9 -6 3 -10 10 -10 16 0 14 7 11 14 -7z m1482 -32 c-17
-16 -18 -16 -5 5 7 12 15 20 18 17 3 -2 -3 -12 -13 -22z m-1623 -21 c26 -45
20 -60 -8 -19 -27 39 -30 48 -17 48 4 0 15 -13 25 -29z m25 -6 c-3 -3 -9 2
-12 12 -6 14 -5 15 5 6 7 -7 10 -15 7 -18z m1732 12 c0 -2 -12 -14 -27 -28
l-28 -24 24 28 c23 25 31 32 31 24z m-1769 -52 c8 -16 6 -15 -10 4 -12 13 -21
28 -21 35 0 12 14 -5 31 -39z m1729 42 c0 -2 -10 -12 -22 -23 l-23 -19 19 23
c18 21 26 27 26 19z m120 -50 c0 -2 -12 -14 -27 -28 l-28 -24 24 28 c23 25 31
32 31 24z m-1949 -44 c13 -16 12 -17 -3 -4 -10 7 -18 15 -18 17 0 8 8 3 21
-13z m-16 -13 c10 -11 16 -20 13 -20 -3 0 -13 9 -23 20 -10 11 -16 20 -13 20
3 0 13 -9 23 -20z m1965 -3 c0 -2 -10 -12 -22 -23 l-23 -19 19 23 c18 21 26
27 26 19z m-2035 -67 c10 -11 16 -20 13 -20 -3 0 -13 9 -23 20 -10 11 -16 20
-13 20 3 0 13 -9 23 -20z m2100 0 c-10 -11 -23 -20 -29 -20 -6 1 0 10 13 20
30 26 39 26 16 0z m32 -16 c-15 -13 -33 -24 -40 -24 -7 1 3 14 22 30 19 16 37
27 40 24 3 -3 -7 -17 -22 -30z m-2127 -19 c13 -14 19 -25 14 -25 -8 1 -50 50
-41 50 2 0 14 -11 27 -25z m2160 21 c0 -2 -8 -10 -17 -17 -16 -13 -17 -12 -4
4 13 16 21 21 21 13z m-2249 -93 c13 -16 12 -17 -3 -4 -10 7 -18 15 -18 17 0
8 8 3 21 -13z m30 0 c13 -16 12 -17 -3 -4 -10 7 -18 15 -18 17 0 8 8 3 21 -13z
m-50 -10 c13 -16 12 -17 -3 -4 -10 7 -18 15 -18 17 0 8 8 3 21 -13z m-50 -70
c13 -16 12 -17 -3 -4 -10 7 -18 15 -18 17 0 8 8 3 21 -13z m3 -28 c11 -8 17
-18 13 -21 -7 -8 -67 34 -67 47 0 10 21 1 54 -26z m-8 -37 l19 -21 -27 18
c-29 18 -34 25 -20 25 5 0 17 -10 28 -22z m2510 -53 c-11 -8 -25 -15 -30 -15
-6 1 0 7 14 15 32 19 40 18 16 0z m-2531 -43 c-3 -3 -11 0 -18 7 -9 10 -8 11
6 5 10 -3 15 -9 12 -12z m-50 -20 c-3 -3 -11 0 -18 7 -9 10 -8 11 6 5 10 -3
15 -9 12 -12z m44 -54 c-12 -23 -32 -69 -45 -102 -18 -48 -23 -55 -24 -33 0
16 7 35 15 43 19 19 19 53 0 78 -8 11 -15 23 -15 27 0 6 54 24 83 28 4 1 -2
-18 -14 -41z m2513 -28 c2 -26 11 -40 36 -57 18 -12 38 -23 44 -25 6 -2 2 -17
-11 -38 -25 -41 -26 -63 -6 -80 9 -7 13 -21 10 -31 -8 -25 10 -56 45 -78 l30
-18 -30 -28 c-33 -31 -39 -65 -15 -85 11 -9 12 -17 4 -32 -15 -29 -3 -81 26
-108 l25 -24 -36 -29 c-32 -26 -35 -34 -31 -63 3 -19 1 -36 -4 -39 -17 -11 -9
-53 15 -82 l24 -29 -44 -20 c-24 -11 -44 -19 -44 -16 0 2 7 30 14 61 66 255
32 582 -88 854 l-17 39 25 -19 c16 -12 26 -30 28 -53z m63 10 c-11 -5 -27 -9
-35 -9 -9 0 -8 4 5 9 11 5 27 9 35 9 9 0 8 -4 -5 -9z m55 -9 c0 -5 -11 -12
-24 -15 -13 -3 -31 -9 -40 -12 -9 -3 -16 -2 -16 3 0 6 15 15 33 21 42 13 47
14 47 3z m69 -141 c33 -126 51 -241 51 -326 l0 -55 -36 36 -36 36 20 22 c28
31 35 62 21 89 -7 13 -12 37 -10 54 2 24 -4 37 -24 52 -14 11 -31 22 -38 25
-8 2 -6 11 6 30 20 31 22 80 4 95 -8 7 -11 25 -9 48 6 50 14 33 51 -106z m-74
110 c-3 -5 -14 -10 -23 -9 -14 0 -13 2 3 9 27 11 27 11 20 0z m28 -87 c-7 -2
-19 -2 -25 0 -7 3 -2 5 12 5 14 0 19 -2 13 -5z m-2803 -23 c8 -5 11 -10 5 -10
-5 0 -17 5 -25 10 -8 5 -10 10 -5 10 6 0 17 -5 25 -10z m66 -66 c-8 -33 -18
-85 -22 -118 -7 -54 -8 -57 -20 -35 -10 20 -10 27 2 40 19 21 17 57 -5 99
l-19 35 37 22 c20 12 37 20 39 18 2 -1 -4 -29 -12 -61z m2701 40 c-3 -3 -12
-4 -19 -1 -8 3 -5 6 6 6 11 1 17 -2 13 -5z m-2790 -60 c-3 -3 -12 -4 -19 -1
-8 3 -5 6 6 6 11 1 17 -2 13 -5z m2 -20 c17 -4 31 -11 31 -16 0 -11 -60 -1
-74 13 -12 11 -1 11 43 3z m8 -40 c-3 -3 -12 -4 -19 -1 -8 3 -5 6 6 6 11 1 17
-2 13 -5z m2866 -81 c-7 -2 -21 -2 -30 0 -10 3 -4 5 12 5 17 0 24 -2 18 -5z
m-2900 -50 c-7 -2 -19 -2 -25 0 -7 3 -2 5 12 5 14 0 19 -2 13 -5z m77 -94 c0
-90 -2 -100 -15 -89 -11 9 -13 16 -5 24 19 19 10 57 -20 84 l-31 27 33 27 c18
15 34 28 36 28 1 0 2 -46 2 -101z m2820 5 c0 -2 -13 -4 -30 -4 -16 0 -30 4
-30 8 0 5 14 7 30 4 17 -2 30 -6 30 -8z m-2887 -11 c-7 -2 -21 -2 -30 0 -10 3
-4 5 12 5 17 0 24 -2 18 -5z m2912 -13 c4 -6 -10 -10 -34 -10 -22 0 -43 5 -46
10 -4 6 10 10 34 10 22 0 43 -4 46 -10z m-38 -26 c-3 -3 -12 -4 -19 -1 -8 3
-5 6 6 6 11 1 17 -2 13 -5z m48 -185 c-14 -100 -65 -293 -85 -329 -7 -12 -9
-9 -10 10 0 14 -9 39 -19 57 l-20 31 29 12 c35 15 64 55 57 81 -3 11 1 31 8
46 15 29 11 48 -19 82 -21 23 -21 24 -2 35 36 21 56 46 56 70 0 14 -4 27 -9
31 -6 3 -3 18 7 35 l17 30 3 -41 c2 -23 -4 -90 -13 -150z m-2841 6 c6 -56 5
-58 -8 -34 -9 14 -27 34 -41 43 l-25 17 27 34 c32 41 36 35 47 -60z m2803 89
c-3 -3 -12 -4 -19 -1 -8 3 -5 6 6 6 11 1 17 -2 13 -5z m-10 -20 c-3 -3 -12 -4
-19 -1 -8 3 -5 6 6 6 11 1 17 -2 13 -5z m-10 -20 c-3 -3 -12 -4 -19 -1 -8 3
-5 6 6 6 11 1 17 -2 13 -5z m-2844 -71 c-7 -2 -21 -2 -30 0 -10 3 -4 5 12 5
17 0 24 -2 18 -5z m31 -22 c3 -5 -14 -11 -39 -13 -46 -3 -63 7 -22 15 40 8 56
7 61 -2z m2793 -17 c-3 -3 -12 -4 -19 -1 -8 3 -5 6 6 6 11 1 17 -2 13 -5z
m-2802 -14 c-11 -5 -27 -9 -35 -9 -9 0 -8 4 5 9 11 5 27 9 35 9 9 0 8 -4 -5
-9z m64 -50 c1 -12 -2 -12 -15 2 -11 11 -14 23 -8 39 l8 24 7 -25 c4 -14 7
-32 8 -40z m-32 -36 c-3 -3 -12 -4 -19 -1 -8 3 -5 6 6 6 11 1 17 -2 13 -5z
m2651 -83 c-17 -11 -19 -21 -15 -60 2 -25 8 -53 11 -62 6 -12 0 -18 -25 -23
-42 -8 -59 -23 -59 -51 0 -12 -9 -29 -21 -36 -22 -15 -27 -47 -15 -91 8 -27 7
-28 -27 -28 -19 0 -42 -3 -51 -6 -8 -3 9 31 39 76 62 92 124 216 151 304 l19
59 6 -34 c6 -27 3 -36 -13 -48z m-2598 47 c0 -7 15 -48 34 -90 28 -65 31 -76
15 -67 -11 5 -19 20 -19 34 0 24 -41 65 -66 65 -18 0 -18 15 2 45 18 27 34 33
34 13z m-73 -14 c-3 -3 -12 -4 -19 -1 -8 3 -5 6 6 6 11 1 17 -2 13 -5z m2723
-70 l25 -15 -25 7 c-14 3 -29 10 -34 15 -16 14 6 10 34 -7z m27 -50 c-8 -8
-77 24 -77 36 0 6 18 1 41 -10 23 -12 39 -24 36 -26z m-18 -20 c14 -12 -19 -1
-35 12 -18 14 -18 14 6 3 14 -6 27 -13 29 -15z m-5 -105 c-75 -151 -158 -263
-289 -394 -180 -181 -357 -290 -595 -369 -112 -37 -265 -69 -304 -64 -24 3
-24 3 10 42 l33 38 27 -21 c28 -22 78 -28 89 -11 3 6 19 10 34 10 31 0 81 34
81 55 0 23 19 27 42 11 30 -21 64 -20 87 3 11 11 22 17 25 14 3 -3 20 -3 38 1
35 6 68 47 68 83 0 18 6 19 53 15 46 -3 55 -1 76 22 14 14 30 26 37 26 20 0
44 41 44 75 0 30 1 30 40 27 43 -4 80 17 80 45 0 7 9 13 19 13 10 0 29 9 42
19 20 16 24 28 22 70 -1 49 0 51 27 51 31 0 80 34 80 55 0 8 12 26 26 40 26
26 28 48 9 96 -5 13 2 18 29 23 37 7 66 37 66 69 0 17 40 60 48 52 2 -2 -18
-45 -44 -96z m-2498 -61 c24 -37 44 -70 44 -72 0 -2 -11 1 -25 7 -15 7 -25 20
-25 33 0 27 -38 62 -77 70 l-31 6 15 45 16 45 20 -33 c11 -19 39 -64 63 -101z
m2459 92 c3 -6 -1 -7 -9 -4 -18 7 -21 14 -7 14 6 0 13 -4 16 -10z m-2600 -20
c-3 -5 -14 -10 -23 -9 -14 0 -13 2 3 9 27 11 27 11 20 0z m64 -64 c-2 -2 -15
-9 -29 -15 -24 -11 -24 -11 -6 3 16 13 49 24 35 12z m31 -14 c0 -10 -70 -45
-77 -39 -4 5 58 47 70 47 4 0 7 -4 7 -8z m2421 -9 c13 -16 12 -17 -3 -4 -17
13 -22 21 -14 21 2 0 10 -8 17 -17z m-2420 -23 c-13 -11 -28 -20 -35 -20 -6 0
3 9 19 20 38 25 47 25 16 0z m2410 3 c13 -16 12 -17 -3 -4 -10 7 -18 15 -18
17 0 8 8 3 21 -13z m-2024 -322 c96 -69 271 -158 373 -191 265 -85 580 -87
841 -4 211 67 398 181 559 344 89 89 105 101 102 79 -3 -18 -12 -29 -26 -33
-27 -7 -46 -44 -46 -91 l0 -35 -50 0 c-44 0 -52 -3 -62 -25 -6 -14 -17 -25
-25 -25 -25 0 -53 -39 -53 -75 l0 -35 -37 15 c-42 18 -78 7 -89 -27 -3 -12
-15 -18 -34 -18 -31 0 -66 -35 -76 -77 -7 -27 -10 -27 -44 -8 -33 19 -64 19
-80 0 -7 -8 -24 -15 -39 -15 -34 0 -45 -8 -65 -49 l-18 -33 -27 26 c-30 28
-72 34 -90 12 -8 -9 -24 -12 -50 -9 -32 4 -43 0 -75 -27 l-37 -33 -32 32 c-33
31 -61 39 -72 21 -4 -7 -12 -7 -25 0 -30 16 -55 12 -80 -15 -13 -14 -27 -25
-31 -25 -4 0 -17 16 -28 36 -19 32 -25 35 -61 33 -22 -2 -45 2 -52 9 -16 16
-77 15 -108 -3 -24 -13 -26 -12 -45 28 -16 34 -26 43 -50 45 -17 2 -38 11 -47
19 -16 14 -51 15 -98 2 -11 -3 -16 6 -18 31 -5 45 -18 60 -53 60 -19 0 -32 7
-40 23 -17 32 -28 37 -86 37 l-53 0 0 50 c0 48 -1 51 -30 57 -19 3 -30 12 -30
22 0 28 -22 41 -67 41 -42 0 -43 1 -36 28 4 15 7 36 8 47 0 15 26 -7 97 -81
54 -56 137 -129 185 -163z m1918 229 c10 -11 16 -20 13 -20 -3 0 -13 9 -23 20
-10 11 -16 20 -13 20 3 0 13 -9 23 -20z m66 3 c13 -17 13 -17 -6 -3 -11 8 -22
16 -24 17 -2 2 0 3 6 3 6 0 17 -8 24 -17z m-2301 -28 c0 -2 -10 -9 -22 -15
-22 -11 -22 -10 -4 4 21 17 26 19 26 11z m2195 -55 c27 -30 12 -34 -15 -5 -13
14 -19 25 -13 25 5 0 18 -9 28 -20z m13 -66 c-8 -7 -57 45 -58 61 0 5 14 -5
32 -22 18 -18 29 -35 26 -39z m-2108 52 c0 -2 -8 -10 -17 -17 -16 -13 -17 -12
-4 4 13 16 21 21 21 13z m2070 -51 c14 -19 14 -19 -2 -6 -10 7 -18 18 -18 24
0 6 1 8 3 6 1 -2 9 -13 17 -24z m-2015 -25 c-3 -5 -12 -10 -18 -10 -7 0 -6 4
3 10 19 12 23 12 15 0z m1906 -37 c13 -16 12 -17 -3 -4 -17 13 -22 21 -14 21
2 0 10 -8 17 -17z m50 0 c13 -16 12 -17 -3 -4 -10 7 -18 15 -18 17 0 8 8 3 21
-13z m-1941 4 c0 -2 -10 -12 -22 -23 l-23 -19 19 23 c18 21 26 27 26 19z m110
-54 c0 -10 -52 -63 -62 -63 -5 0 4 16 19 35 26 33 43 44 43 28z m-50 -13 c0
-4 -6 -12 -13 -18 -10 -8 -13 -6 -13 7 0 10 6 18 13 18 7 0 13 -4 13 -7z m54
-25 c-9 -14 -21 -25 -27 -25 -6 0 0 11 13 25 13 14 25 25 27 25 2 0 -4 -11
-13 -25z m1576 -69 c0 -12 -5 -7 -19 24 -11 24 -11 24 3 6 9 -11 16 -24 16
-30z m50 4 c6 -11 8 -20 6 -20 -3 0 -10 9 -16 20 -6 11 -8 20 -6 20 3 0 10 -9
16 -20z m-1526 -25 c-9 -14 -18 -25 -21 -25 -5 0 5 18 20 38 17 22 18 13 1
-13z m1406 -42 c0 -22 -8 -14 -19 20 -10 29 -9 30 4 13 8 -11 15 -26 15 -33z
m-1280 17 c-6 -11 -13 -20 -16 -20 -2 0 0 9 6 20 6 11 13 20 16 20 2 0 0 -9
-6 -20z m1255 -23 c17 -41 5 -52 -13 -12 -12 25 -17 63 -7 54 2 -3 11 -22 20
-42z m-158 -39 c-3 -8 -6 -5 -6 6 -1 11 2 17 5 13 3 -3 4 -12 1 -19z m-987 -6
c0 -5 -7 -17 -15 -28 -14 -18 -14 -17 -4 9 12 27 19 34 19 19z m108 -45 c-6
-20 -15 -37 -20 -37 -11 0 -10 5 7 47 19 46 28 39 13 -10z m28 -3 c-4 -14 -9
-24 -12 -21 -3 2 -2 17 2 31 3 15 9 25 11 22 3 -3 2 -17 -1 -32z m771 4 c-3
-8 -6 -5 -6 6 -1 11 2 17 5 13 3 -3 4 -12 1 -19z m-160 -20 c-3 -7 -5 -2 -5
12 0 14 2 19 5 13 2 -7 2 -19 0 -25z m20 0 c-3 -7 -5 -2 -5 12 0 14 2 19 5 13
2 -7 2 -19 0 -25z m-110 -30 c-2 -13 -4 -5 -4 17 -1 22 1 32 4 23 2 -10 2 -28
0 -40z m-390 20 c-3 -8 -6 -5 -6 6 -1 11 2 17 5 13 3 -3 4 -12 1 -19z m120 0
c-3 -8 -6 -5 -6 6 -1 11 2 17 5 13 3 -3 4 -12 1 -19z m90 -10 c-3 -7 -5 -2 -5
12 0 14 2 19 5 13 2 -7 2 -19 0 -25z m153 -52 c-7 -7 -10 6 -9 39 l1 50 9 -39
c6 -26 6 -43 -1 -50z m-33 22 c-3 -7 -5 -2 -5 12 0 14 2 19 5 13 2 -7 2 -19 0
-25z m-240 0 c-3 -8 -6 -5 -6 6 -1 11 2 17 5 13 3 -3 4 -12 1 -19z"/>
<path d="M1348 2840 c-244 -51 -449 -158 -625 -323 -230 -218 -365 -497 -392
-816 -57 -642 367 -1215 1004 -1357 113 -25 343 -30 466 -10 407 67 753 323
938 695 48 94 92 222 112 326 21 105 18 388 -4 493 -37 170 -96 308 -191 452
-190 284 -498 487 -830 545 -125 21 -365 19 -478 -5z m619 -245 c402 -152 671
-518 699 -951 l7 -107 -49 9 c-27 5 -85 9 -129 9 -68 0 -89 -4 -139 -29 -71
-35 -131 -93 -157 -150 -22 -51 -41 -69 -96 -91 -45 -18 -62 -47 -42 -71 10
-12 8 -20 -10 -44 -19 -26 -20 -35 -11 -75 9 -38 7 -49 -10 -77 -11 -18 -20
-39 -20 -45 0 -23 73 -94 122 -119 26 -13 48 -29 48 -34 0 -16 -69 -40 -175
-61 -114 -22 -161 -24 -171 -8 -9 15 -105 59 -130 59 -35 0 -80 59 -106 138
-16 50 -27 72 -38 70 -8 -1 -34 8 -57 20 -23 12 -49 22 -58 22 -18 0 -20 -26
-2 -33 8 -3 6 -11 -9 -28 -11 -13 -33 -49 -48 -81 l-28 -56 38 -40 c22 -22 51
-47 66 -56 15 -10 40 -41 56 -69 31 -55 105 -130 147 -149 43 -20 28 -28 -52
-28 -306 0 -623 140 -810 357 -70 81 -133 173 -133 194 0 23 21 69 31 69 4 0
36 -16 71 -36 80 -46 179 -84 219 -84 16 0 46 9 67 19 55 29 142 141 142 184
0 10 10 14 33 13 29 -1 32 2 35 31 3 25 8 33 23 33 48 0 59 17 59 90 0 89 13
100 121 100 63 0 79 3 94 20 19 21 19 23 -5 204 -12 88 -7 219 9 245 7 10 17
8 49 -8 54 -28 63 -27 21 2 -52 35 -49 58 10 91 79 42 105 70 139 143 49 106
82 265 82 390 0 52 4 52 97 18z"/>
</g>
</svg>
